<?xml version="1.0" encoding="UTF-8"?>
<svg xmlns="http://www.w3.org/2000/svg" xmlns:xlink="http://www.w3.org/1999/xlink" width="414px" height="152px" viewBox="0 0 414 152" version="1.1">
<defs>
<linearGradient id="linear0" gradientUnits="userSpaceOnUse" x1="426.751" y1="-632.71" x2="416.733" y2="-614.042" gradientTransform="matrix(1.536178,0,0,-1.537643,-635.134375,-890.540809)">
<stop offset="0" style="stop-color:rgb(0%,43.921569%,71.372549%);stop-opacity:1;"/>
<stop offset="1" style="stop-color:rgb(11.372549%,17.254902%,36.862745%);stop-opacity:1;"/>
</linearGradient>
<linearGradient id="linear1" gradientUnits="userSpaceOnUse" x1="548.926" y1="-594.572" x2="561.641" y2="-580.948" gradientTransform="matrix(1.536178,0,0,-1.537643,-635.134375,-890.540809)">
<stop offset="0" style="stop-color:rgb(0%,43.921569%,71.372549%);stop-opacity:1;"/>
<stop offset="1" style="stop-color:rgb(11.372549%,17.254902%,36.862745%);stop-opacity:1;"/>
</linearGradient>
<linearGradient id="linear2" gradientUnits="userSpaceOnUse" x1="493.453" y1="-617.286" x2="491.937" y2="-604.548" gradientTransform="matrix(1.536178,0,0,-1.537643,-635.134375,-890.540809)">
<stop offset="0" style="stop-color:rgb(0%,43.921569%,71.372549%);stop-opacity:1;"/>
<stop offset="1" style="stop-color:rgb(11.372549%,17.254902%,36.862745%);stop-opacity:1;"/>
</linearGradient>
<linearGradient id="linear3" gradientUnits="userSpaceOnUse" x1="632.347" y1="-614.834" x2="631.742" y2="-603.336" gradientTransform="matrix(1.536178,0,0,-1.537643,-635.134375,-890.540809)">
<stop offset="0" style="stop-color:rgb(7.058824%,36.470588%,61.960784%);stop-opacity:1;"/>
<stop offset="1" style="stop-color:rgb(11.372549%,17.254902%,36.862745%);stop-opacity:1;"/>
</linearGradient>
<linearGradient id="linear4" gradientUnits="userSpaceOnUse" x1="589.912" y1="-598.261" x2="576.568" y2="-619.489" gradientTransform="matrix(1.536178,0,0,-1.537643,-635.134375,-890.540809)">
<stop offset="0" style="stop-color:rgb(7.058824%,36.470588%,61.960784%);stop-opacity:1;"/>
<stop offset="1" style="stop-color:rgb(11.372549%,17.254902%,36.862745%);stop-opacity:1;"/>
</linearGradient>
<linearGradient id="linear5" gradientUnits="userSpaceOnUse" x1="471.821" y1="-632.309" x2="480.919" y2="-650.202" gradientTransform="matrix(1.536178,0,0,-1.537643,-635.134375,-890.540809)">
<stop offset="0" style="stop-color:rgb(6.27451%,37.254902%,63.137255%);stop-opacity:1;"/>
<stop offset="1" style="stop-color:rgb(11.372549%,17.254902%,36.862745%);stop-opacity:1;"/>
</linearGradient>
<linearGradient id="linear6" gradientUnits="userSpaceOnUse" x1="437.492" y1="-626.202" x2="448.022" y2="-650.612" gradientTransform="matrix(1.536178,0,0,-1.537643,-635.134375,-890.540809)">
<stop offset="0" style="stop-color:rgb(6.27451%,37.254902%,63.137255%);stop-opacity:1;"/>
<stop offset="1" style="stop-color:rgb(11.372549%,17.254902%,36.862745%);stop-opacity:1;"/>
</linearGradient>
<linearGradient id="linear7" gradientUnits="userSpaceOnUse" x1="639.706" y1="2062.77" x2="655.635" y2="2062.77" gradientTransform="matrix(1.536178,0,0,1.537643,-874.77816,-3085.52607)">
<stop offset="0" style="stop-color:rgb(23.529412%,35.294118%,65.098039%);stop-opacity:1;"/>
<stop offset="0.933" style="stop-color:rgb(16.862745%,45.098039%,72.54902%);stop-opacity:1;"/>
<stop offset="1" style="stop-color:rgb(16.470588%,45.882353%,73.333333%);stop-opacity:1;"/>
</linearGradient>
<linearGradient id="linear8" gradientUnits="userSpaceOnUse" x1="578.628" y1="2056.257" x2="844.371" y2="2056.257" gradientTransform="matrix(1.536178,0,0,1.537643,-883.151866,-3088.118536)">
<stop offset="0" style="stop-color:rgb(23.529412%,35.294118%,65.098039%);stop-opacity:1;"/>
<stop offset="0.933" style="stop-color:rgb(16.862745%,45.098039%,72.54902%);stop-opacity:1;"/>
<stop offset="1" style="stop-color:rgb(16.470588%,45.882353%,73.333333%);stop-opacity:1;"/>
</linearGradient>
</defs>
<g id="surface1">
<path style=" stroke:none;fill-rule:nonzero;fill:url(#linear0);" d="M 0 56.316406 L 18.433594 87.53125 L 25.808594 80.460938 L 5.683594 50.476562 Z M 0 56.316406 "/>
<path style=" stroke:none;fill-rule:nonzero;fill:rgb(0%,44.313725%,72.54902%);fill-opacity:1;" d="M 274.363281 31.714844 L 273.59375 35.867188 L 282.347656 32.945312 L 281.273438 27.871094 Z M 274.363281 31.714844 "/>
<path style=" stroke:none;fill-rule:nonzero;fill:url(#linear1);" d="M 222.746094 3.578125 L 194.328125 36.175781 L 202.621094 33.867188 L 229.660156 0.0390625 Z M 222.746094 3.578125 "/>
<path style=" stroke:none;fill-rule:nonzero;fill:rgb(11.372549%,17.254902%,36.862745%);fill-opacity:1;" d="M 374.980469 48.167969 L 381.894531 44.476562 L 379.898438 62.007812 Z M 374.980469 48.167969 "/>
<path style=" stroke:none;fill-rule:nonzero;fill:rgb(11.372549%,17.254902%,36.862745%);fill-opacity:1;" d="M 331.507812 59.394531 L 337.804688 60.777344 L 345.640625 56.933594 L 338.726562 54.320312 Z M 331.507812 59.394531 "/>
<path style=" stroke:none;fill-rule:nonzero;fill:url(#linear2);" d="M 117.671875 40.941406 L 118.59375 61.085938 L 127.347656 57.703125 L 124.738281 37.097656 Z M 117.671875 40.941406 "/>
<path style=" stroke:none;fill-rule:nonzero;fill:url(#linear3);" d="M 338.265625 34.792969 L 331.355469 38.636719 L 331.507812 59.394531 L 338.574219 55.855469 L 340.722656 45.707031 Z M 338.265625 34.792969 "/>
<path style=" stroke:none;fill-rule:nonzero;fill:rgb(19.215686%,13.72549%,43.921569%);fill-opacity:1;" d="M 337.34375 60.777344 L 329.664062 129.046875 L 341.953125 126.589844 L 344.257812 57.085938 Z M 337.34375 60.777344 "/>
<path style=" stroke:none;fill-rule:nonzero;fill:rgb(12.941176%,21.960784%,43.137255%);fill-opacity:1;" d="M 352.246094 132.277344 L 352.554688 141.503906 L 376.054688 149.039062 L 383.121094 145.347656 L 359.925781 127.355469 L 336.578125 125.359375 L 329.664062 129.046875 Z M 352.246094 132.277344 "/>
<path style=" stroke:none;fill-rule:nonzero;fill:rgb(12.941176%,21.960784%,43.137255%);fill-opacity:1;" d="M 264.992188 115.980469 L 270.675781 112.902344 L 274.515625 119.667969 L 279.890625 116.746094 L 280.96875 125.664062 L 315.222656 131.816406 L 321.984375 127.972656 L 274.820312 99.21875 L 241.332031 104.90625 L 234.882812 111.210938 Z M 264.992188 115.980469 "/>
<path style=" stroke:none;fill-rule:nonzero;fill:url(#linear4);" d="M 254.082031 32.023438 L 247.171875 35.867188 L 234.882812 111.210938 L 241.792969 107.523438 L 253.621094 65.238281 Z M 254.082031 32.023438 "/>
<path style=" stroke:none;fill-rule:nonzero;fill:rgb(11.372549%,17.254902%,36.862745%);fill-opacity:1;" d="M 199.394531 42.171875 L 193.867188 45.09375 L 194.328125 46.9375 L 207.382812 38.636719 L 201.699219 32.484375 L 194.328125 36.175781 Z M 199.394531 42.171875 "/>
<path style=" stroke:none;fill-rule:nonzero;fill:rgb(12.941176%,21.960784%,43.137255%);fill-opacity:1;" d="M 214.296875 131.203125 L 158.535156 103.523438 L 165.445312 98.140625 L 221.210938 127.355469 Z M 214.296875 131.203125 "/>
<path style=" stroke:none;fill-rule:nonzero;fill:rgb(11.372549%,17.254902%,36.862745%);fill-opacity:1;" d="M 163.757812 28.179688 L 155.308594 44.171875 L 164.21875 41.558594 L 170.667969 24.335938 Z M 163.757812 28.179688 "/>
<path style=" stroke:none;fill-rule:nonzero;fill:url(#linear5);" d="M 86.949219 94.453125 L 79.882812 99.371094 C 79.882812 99.371094 81.417969 107.367188 83.414062 112.902344 C 85.410156 118.4375 90.019531 122.898438 90.019531 122.898438 C 93.09375 125.820312 96.625 127.972656 100.773438 129.203125 C 108.609375 131.507812 117.519531 129.972656 125.199219 125.050781 C 127.195312 123.820312 129.960938 121.820312 131.652344 120.128906 C 124.125 124.742188 86.949219 94.453125 86.949219 94.453125 Z M 86.949219 94.453125 "/>
<path style=" stroke:none;fill-rule:nonzero;fill:rgb(11.372549%,17.254902%,36.862745%);fill-opacity:1;" d="M 125.199219 59.546875 L 131.652344 131.355469 L 158.378906 127.511719 L 165.445312 123.820312 L 132.417969 55.242188 L 125.660156 57.546875 L 118.59375 61.085938 Z M 125.199219 59.546875 "/>
<path style=" stroke:none;fill-rule:nonzero;fill:url(#linear6);" d="M 25.347656 84.457031 L 55.148438 151.960938 L 83.414062 142.886719 L 90.328125 138.273438 L 31.644531 76.769531 L 24.273438 81.226562 L 18.433594 87.53125 Z M 25.347656 84.457031 "/>
<path style=" stroke:none;fill-rule:nonzero;fill:rgb(11.372549%,17.254902%,36.862745%);fill-opacity:1;" d="M 320.140625 116.285156 L 320.601562 119.667969 C 323.058594 119.363281 325.515625 119.054688 327.820312 118.285156 C 330.433594 117.363281 335.960938 114.902344 337.960938 113.058594 C 337.039062 113.363281 324.132812 116.746094 320.140625 116.285156 "/>
<path style=" stroke:none;fill-rule:nonzero;fill:rgb(11.372549%,17.254902%,36.862745%);fill-opacity:1;" d="M 220.132812 99.066406 L 221.210938 104.445312 C 226.894531 103.523438 231.808594 101.523438 236.726562 98.601562 C 239.796875 96.757812 243.023438 94.144531 244.097656 93.375 C 243.332031 93.835938 220.132812 99.066406 220.132812 99.066406 Z M 220.132812 99.066406 "/>
<path style=" stroke:none;fill-rule:nonzero;fill:rgb(100%,79.607843%,1.960784%);fill-opacity:1;" d="M 62.90625 145.523438 L 60.753906 140.601562 L 32.488281 77.558594 L 31.875 76.328125 L 30.644531 76.945312 L 29.722656 77.40625 L 24.652344 79.867188 C 23.886719 78.636719 22.65625 76.484375 21.890625 75.097656 L 10.519531 55.878906 L 7.601562 50.804688 L 12.519531 47.730469 C 17.125 44.808594 22.351562 42.039062 28.1875 39.578125 C 39.554688 34.8125 51.078125 32.199219 61.675781 32.199219 C 65.210938 32.199219 68.589844 32.507812 71.660156 32.96875 C 76.882812 33.582031 81.800781 35.273438 85.792969 38.042969 C 91.785156 41.425781 96.546875 46.652344 99.160156 52.804688 C 101.308594 57.878906 101.769531 63.875 100.386719 70.023438 L 99.621094 73.714844 L 102.691406 71.5625 C 104.6875 70.023438 106.839844 68.792969 109.144531 67.871094 C 113.136719 66.179688 117.285156 65.257812 121.433594 65.257812 C 125.425781 65.257812 129.113281 66.027344 132.492188 67.566406 L 134.644531 68.488281 L 134.492188 66.027344 L 133.570312 55.726562 L 133.414062 54.035156 L 131.878906 54.496094 L 127.117188 55.726562 L 126.347656 38.195312 L 161.375 26.972656 L 161.066406 40.65625 L 163.679688 41.269531 L 171.359375 26.664062 L 194.25 46.960938 L 195.167969 47.882812 L 196.089844 46.960938 C 199.164062 44.039062 203.003906 41.578125 207.152344 39.886719 L 208.84375 39.117188 L 207.613281 37.582031 L 203.464844 32.507812 L 229.734375 2.214844 L 243.558594 22.820312 L 222.515625 34.199219 L 217.90625 36.65625 L 223.28125 36.8125 C 233.265625 36.964844 242.175781 41.269531 248.167969 48.652344 L 250.320312 51.417969 L 251.703125 53.109375 L 249.398438 55.570312 L 247.859375 57.261719 L 242.636719 62.953125 L 241.714844 64.027344 L 242.792969 64.949219 L 247.707031 69.410156 L 249.550781 71.101562 L 250.011719 68.640625 L 251.855469 56.953125 L 252.777344 50.804688 L 255.542969 33.429688 L 281.65625 33.429688 L 281.808594 32.199219 L 282.269531 29.277344 L 305.007812 29.277344 L 310.535156 64.027344 L 310.84375 66.335938 L 312.6875 64.949219 C 314.992188 63.257812 317.449219 62.027344 320.0625 60.953125 C 323.59375 59.570312 327.128906 58.953125 330.8125 58.953125 C 335.117188 58.953125 339.261719 59.875 342.796875 61.875 C 342.949219 61.875 342.949219 62.027344 343.257812 62.183594 L 344.945312 62.796875 L 345.101562 60.953125 L 345.5625 57.109375 L 345.714844 55.878906 L 344.488281 55.570312 L 339.878906 54.496094 L 339.722656 36.351562 L 374.902344 44.039062 L 377.515625 57.109375 L 380.28125 57.109375 L 383.042969 45.882812 L 412.386719 52.957031 L 382.277344 143.523438 L 360.921875 136.757812 L 360.769531 128.457031 L 360.769531 127.226562 L 359.539062 127.070312 L 338.1875 123.996094 L 339.417969 113.078125 L 339.722656 110.464844 L 337.421875 111.695312 C 336.34375 112.308594 335.269531 112.769531 334.195312 113.078125 C 330.660156 114.460938 327.128906 115.078125 323.59375 115.078125 C 322.519531 115.078125 321.597656 115.078125 320.523438 114.925781 L 318.679688 114.769531 L 318.984375 116.617188 L 320.523438 126.148438 L 289.335938 120.613281 L 287.648438 106.46875 L 287.1875 101.855469 L 285.035156 105.851562 L 281.503906 112.769531 L 274.898438 100.625 L 272.902344 96.933594 L 272.285156 101.085938 L 270.902344 110.464844 L 243.558594 106.160156 L 245.710938 93.242188 L 246.171875 90.320312 L 243.558594 91.859375 C 239.105469 94.472656 233.882812 96.625 227.890625 98.011719 C 225.738281 98.472656 223.589844 98.933594 221.285156 99.085938 L 220.054688 99.238281 L 220.054688 125.074219 L 166.289062 98.472656 L 164.292969 97.546875 L 164.292969 122.613281 L 140.175781 126.148438 L 139.097656 115.230469 L 138.792969 112.308594 L 136.640625 114.308594 C 133.414062 117.382812 129.882812 119.84375 126.042969 121.535156 C 122.046875 123.226562 117.898438 124.148438 113.90625 124.148438 C 109.757812 124.148438 105.917969 123.226562 102.382812 121.691406 C 95.933594 118.613281 91.171875 112.925781 89.171875 105.699219 C 88.25 102.316406 87.945312 98.777344 88.40625 95.089844 L 88.867188 91.246094 L 86.101562 94.011719 C 84.105469 95.855469 81.953125 97.703125 79.648438 99.394531 L 78.882812 100.007812 L 79.1875 100.929688 L 87.332031 131.992188 L 88.710938 137.527344 L 83.335938 139.21875 L 68.128906 144.140625 Z M 69.664062 62.027344 C 68.894531 62.027344 68.128906 62.027344 67.207031 62.183594 L 66.132812 62.335938 L 64.59375 62.644531 L 65.054688 64.183594 L 65.363281 65.105469 L 69.664062 79.40625 L 70.125 80.789062 L 70.738281 82.789062 L 72.277344 81.402344 L 73.351562 80.480469 C 77.652344 76.636719 79.035156 72.792969 78.113281 67.871094 C 77.5 64.949219 75.347656 63.566406 73.964844 62.953125 C 73.042969 62.335938 71.355469 62.027344 69.664062 62.027344 Z M 186.722656 62.492188 L 183.957031 65.105469 L 176.734375 72.023438 L 175.199219 73.5625 L 177.195312 74.332031 L 184.878906 77.25 L 187.183594 78.175781 L 186.722656 75.714844 C 186.105469 72.484375 185.953125 69.257812 186.261719 66.179688 Z M 218.058594 54.496094 C 215.140625 54.496094 212.222656 55.726562 210.222656 58.03125 C 207.152344 61.414062 206.539062 66.488281 208.6875 70.484375 L 209.300781 71.5625 L 210.222656 73.253906 L 211.605469 71.714844 L 212.527344 70.792969 L 223.128906 58.800781 L 223.894531 57.878906 L 225.277344 56.339844 L 223.4375 55.570312 L 222.207031 55.109375 C 220.671875 54.800781 219.441406 54.496094 218.058594 54.496094 Z M 218.058594 54.496094 "/>
<path style=" stroke:none;fill-rule:nonzero;fill:rgb(49.019608%,49.803922%,40.784314%);fill-opacity:1;" d="M 234.113281 72.308594 L 233.804688 72.617188 C 233.960938 72.617188 234.113281 72.464844 234.113281 72.308594 Z M 234.113281 72.308594 "/>
<path style=" stroke:none;fill-rule:nonzero;fill:rgb(49.019608%,49.803922%,40.784314%);fill-opacity:1;" d="M 243.332031 64.007812 L 248.554688 58.316406 L 246.710938 60.164062 L 246.710938 60.007812 L 245.175781 61.699219 L 239.949219 67.234375 L 244.867188 71.695312 L 245.789062 66.160156 L 248.246094 68.3125 Z M 243.332031 64.007812 "/>
<path style=" stroke:none;fill-rule:nonzero;fill:rgb(49.019608%,49.803922%,40.784314%);fill-opacity:1;" d="M 243.332031 64.007812 L 248.246094 68.3125 L 250.089844 56.625 L 248.554688 58.316406 Z M 243.332031 64.007812 "/>
<path style=" stroke:none;fill-rule:nonzero;fill:rgb(78.039216%,62.745098%,3.137255%);fill-opacity:1;" d="M 206.921875 78 C 207.382812 78.460938 206.921875 78.152344 207.382812 78.460938 L 210.609375 76.152344 C 210.148438 75.847656 209.6875 75.386719 209.226562 75.078125 C 204.617188 70.773438 205.847656 61.238281 208.765625 56.011719 C 200.777344 62.46875 201.238281 72.308594 206.921875 78 "/>
<path style=" stroke:none;fill-rule:nonzero;fill:rgb(78.039216%,62.745098%,3.137255%);fill-opacity:1;" d="M 245.789062 83.378906 C 240.410156 87.839844 234.421875 90.609375 226.433594 92.605469 C 224.742188 93.066406 222.898438 93.375 221.363281 93.375 C 208.613281 94.605469 198.011719 88.761719 194.019531 79.382812 C 193.558594 78.304688 193.097656 77.078125 192.789062 75.847656 C 190.945312 67.851562 192.484375 60.777344 196.476562 55.089844 C 196.9375 54.472656 197.246094 54.011719 197.707031 53.550781 C 197.550781 53.703125 197.246094 53.859375 197.089844 54.011719 C 195.554688 55.394531 194.171875 56.78125 193.097656 58.472656 C 189.105469 64.007812 187.566406 71.234375 189.410156 79.230469 C 189.71875 80.460938 190.023438 81.6875 190.640625 82.765625 C 194.632812 92.300781 205.386719 98.140625 217.984375 96.910156 C 219.671875 96.757812 221.363281 96.449219 223.207031 95.988281 C 231.195312 93.992188 237.339844 91.222656 242.5625 86.761719 C 243.792969 85.6875 245.175781 84.457031 246.402344 83.226562 L 246.25 83.074219 C 245.941406 83.226562 245.789062 83.226562 245.789062 83.378906 "/>
<path style=" stroke:none;fill-rule:nonzero;fill:rgb(78.039216%,62.745098%,3.137255%);fill-opacity:1;" d="M 156.230469 59.238281 L 170.363281 39.25 L 169.746094 38.789062 L 156.074219 58.007812 Z M 156.230469 59.238281 "/>
<path style=" stroke:none;fill-rule:nonzero;fill:rgb(78.039216%,62.745098%,3.137255%);fill-opacity:1;" d="M 250.089844 56.625 L 248.246094 68.3125 L 245.789062 66.160156 L 244.867188 71.695312 L 239.949219 67.234375 L 245.175781 61.699219 L 246.710938 60.007812 L 246.710938 60.164062 L 248.554688 58.316406 Z M 250.089844 56.625 "/>
<path style=" stroke:none;fill-rule:nonzero;fill:rgb(78.039216%,62.745098%,3.137255%);fill-opacity:1;" d="M 232.578125 23.71875 L 237.492188 21.566406 L 228.429688 9.882812 L 225.511719 14.1875 Z M 232.578125 23.71875 "/>
<path style=" stroke:none;fill-rule:nonzero;fill:rgb(78.039216%,62.745098%,3.137255%);fill-opacity:1;" d="M 94.9375 52.628906 C 71.894531 24.644531 30.570312 39.710938 15.824219 52.78125 L 16.4375 53.859375 C 19.816406 51.859375 23.503906 50.167969 27.191406 48.476562 C 41.9375 42.171875 56.070312 40.328125 67.285156 42.324219 C 71.277344 42.785156 75.425781 44.015625 79.113281 46.476562 C 84.183594 49.398438 88.023438 53.398438 90.328125 58.625 C 94.320312 67.851562 90.789062 80.152344 81.417969 90.300781 C 93.246094 79.382812 101.386719 68.925781 94.9375 52.628906 Z M 94.9375 52.628906 "/>
<path style=" stroke:none;fill-rule:nonzero;fill:rgb(78.039216%,62.745098%,3.137255%);fill-opacity:1;" d="M 141.789062 85.226562 C 141.636719 84.765625 141.636719 84.148438 141.480469 83.6875 C 140.253906 79.074219 137.488281 75.386719 133.800781 72.925781 C 127.964844 68.925781 119.667969 68.15625 111.527344 71.539062 C 107.226562 73.386719 103.539062 76.308594 100.464844 79.691406 C 102.769531 77.691406 105.382812 76.152344 108.148438 74.921875 C 116.289062 71.386719 124.585938 72.308594 130.421875 76.308594 C 134.109375 78.769531 136.875 82.457031 138.101562 87.070312 C 138.257812 87.53125 138.410156 88.148438 138.410156 88.609375 C 138.71875 90.453125 138.871094 92.144531 138.871094 93.992188 C 138.71875 99.371094 136.71875 104.753906 133.492188 109.367188 C 133.03125 110.136719 132.417969 110.75 131.804688 111.519531 C 133.648438 109.828125 135.335938 108.136719 136.71875 106.136719 C 140.097656 101.523438 141.941406 96.144531 142.25 90.761719 C 142.25 88.917969 142.097656 87.070312 141.789062 85.226562 "/>
<path style=" stroke:none;fill-rule:nonzero;fill:rgb(78.039216%,62.745098%,3.137255%);fill-opacity:1;" d="M 119.207031 78.460938 C 119.207031 78.460938 122.585938 75.078125 122.433594 75.078125 C 118.285156 74.921875 116.441406 78.921875 116.289062 79.230469 C 117.210938 78.769531 118.132812 78.613281 119.207031 78.460938 "/>
<path style=" stroke:none;fill-rule:nonzero;fill:rgb(78.039216%,62.745098%,3.137255%);fill-opacity:1;" d="M 127.042969 83.226562 C 127.195312 83.84375 127.347656 84.304688 127.347656 84.917969 C 127.347656 85.839844 127.195312 86.609375 126.734375 87.378906 C 127.347656 87.070312 132.265625 84.609375 130.421875 79.691406 C 130.574219 79.996094 126.886719 83.226562 127.042969 83.226562 "/>
<path style=" stroke:none;fill-rule:nonzero;fill:rgb(78.039216%,62.745098%,3.137255%);fill-opacity:1;" d="M 107.992188 86.148438 C 107.992188 84.148438 111.527344 79.074219 112.601562 77.382812 C 107.070312 80.921875 104.613281 85.6875 104.613281 89.378906 C 104.613281 95.835938 110.296875 101.0625 117.058594 101.0625 C 120.28125 101.0625 126.121094 99.371094 129.960938 93.222656 C 127.964844 94.605469 122.894531 97.679688 120.128906 97.679688 C 113.371094 97.679688 107.992188 92.605469 107.992188 86.148438 "/>
<path style=" stroke:none;fill-rule:nonzero;fill:rgb(78.039216%,62.745098%,3.137255%);fill-opacity:1;" d="M 155.460938 91.992188 L 155.613281 117.976562 L 159.761719 118.285156 L 158.839844 88.609375 Z M 155.460938 91.992188 "/>
<path style=" stroke:none;fill-rule:nonzero;fill:rgb(78.039216%,62.745098%,3.137255%);fill-opacity:1;" d="M 131.804688 42.324219 L 131.804688 44.632812 L 151.46875 38.789062 L 152.851562 63.851562 L 156.230469 59.238281 L 155.460938 34.175781 Z M 131.804688 42.324219 "/>
<path style=" stroke:none;fill-rule:nonzero;fill:rgb(78.039216%,62.745098%,3.137255%);fill-opacity:1;" d="M 190.945312 51.242188 L 172.667969 34.328125 L 170.363281 39.25 L 186.644531 54.472656 Z M 190.945312 51.242188 "/>
<path style=" stroke:none;fill-rule:nonzero;fill:rgb(78.039216%,62.745098%,3.137255%);fill-opacity:1;" d="M 188.183594 82.765625 L 166.523438 75.539062 L 163.449219 78.921875 L 184.957031 87.53125 C 187.414062 92.144531 191.101562 96.144531 195.710938 98.910156 C 200.164062 101.679688 205.386719 103.371094 210.761719 103.832031 L 210.761719 114.441406 L 214.144531 116.132812 L 215.21875 100.140625 Z M 188.183594 82.765625 "/>
<path style=" stroke:none;fill-rule:nonzero;fill:rgb(78.039216%,62.745098%,3.137255%);fill-opacity:1;" d="M 222.898438 79.84375 C 228.277344 78.613281 231.195312 75.847656 233.960938 72.769531 C 231.964844 74.460938 222.132812 76.613281 220.441406 77.078125 L 217.214844 80.613281 C 218.597656 80.613281 221.054688 80.304688 222.898438 79.84375 "/>
<path style=" stroke:none;fill-rule:nonzero;fill:rgb(78.039216%,62.745098%,3.137255%);fill-opacity:1;" d="M 213.222656 42.941406 C 203.390625 44.171875 198.320312 52.472656 197.550781 53.398438 C 201.238281 50.320312 205.695312 48.015625 210.761719 46.9375 C 222.898438 44.015625 233.5 47.707031 240.105469 55.855469 L 244.253906 52.472656 C 237.648438 44.476562 225.355469 40.019531 213.222656 42.941406 "/>
<path style=" stroke:none;fill-rule:nonzero;fill:rgb(78.039216%,62.745098%,3.137255%);fill-opacity:1;" d="M 246.097656 83.074219 C 247.324219 82.152344 249.320312 81.074219 250.550781 79.84375 L 237.492188 68.15625 C 236.417969 69.386719 235.648438 71.386719 234.421875 72.308594 Z M 246.097656 83.074219 "/>
<path style=" stroke:none;fill-rule:nonzero;fill:rgb(78.039216%,62.745098%,3.137255%);fill-opacity:1;" d="M 313.226562 114.441406 C 299.554688 103.0625 300.324219 78.921875 307.082031 71.234375 L 301.089844 33.253906 L 287.878906 34.945312 L 287.265625 38.328125 L 297.25 38.328125 L 302.628906 72.769531 C 295.867188 80.460938 292.640625 90.761719 294.792969 100.292969 C 296.480469 107.675781 301.089844 113.519531 307.542969 116.902344 C 308.15625 117.207031 308.925781 117.515625 309.539062 117.824219 L 309.695312 118.285156 L 313.6875 118.898438 C 313.535156 119.054688 313.996094 114.75 313.226562 114.441406 Z M 313.226562 114.441406 "/>
<path style=" stroke:none;fill-rule:nonzero;fill:rgb(78.039216%,62.745098%,3.137255%);fill-opacity:1;" d="M 260.535156 38.789062 L 259.921875 42.171875 L 274.976562 42.171875 L 279.429688 66.621094 L 282.808594 63.238281 L 279.277344 37.40625 Z M 260.535156 38.789062 "/>
<path style=" stroke:none;fill-rule:nonzero;fill:rgb(78.039216%,62.745098%,3.137255%);fill-opacity:1;" d="M 286.34375 86.148438 L 281.429688 98.757812 L 282.65625 102.140625 L 289.570312 82.917969 Z M 286.34375 86.148438 "/>
<path style=" stroke:none;fill-rule:nonzero;fill:rgb(78.039216%,62.745098%,3.137255%);fill-opacity:1;" d="M 271.902344 78.304688 L 268.523438 81.6875 L 264.835938 104.445312 L 268.371094 105.675781 Z M 271.902344 78.304688 "/>
<path style=" stroke:none;fill-rule:nonzero;fill:rgb(78.039216%,62.745098%,3.137255%);fill-opacity:1;" d="M 339.648438 70.925781 C 341.644531 72.308594 343.335938 74.15625 344.566406 76.308594 C 345.640625 78 346.253906 79.691406 346.867188 81.84375 C 348.558594 88.761719 346.5625 96.144531 342.261719 101.984375 C 341.800781 102.601562 341.339844 103.214844 340.878906 103.675781 C 342.566406 102.140625 364.074219 86.300781 343.183594 65.542969 C 320.140625 58.007812 311.382812 72.925781 310.613281 74 C 313.074219 72.003906 315.839844 70.15625 318.910156 69.082031 C 326.589844 66.003906 334.273438 67.082031 339.648438 70.925781 "/>
<path style=" stroke:none;fill-rule:nonzero;fill:rgb(78.039216%,62.745098%,3.137255%);fill-opacity:1;" d="M 328.128906 72.464844 C 328.128906 72.617188 331.507812 69.082031 331.507812 69.082031 C 327.359375 69.234375 325.363281 71.234375 325.667969 72.15625 C 325.363281 72.464844 325.207031 72.925781 325.054688 73.230469 C 325.824219 72.769531 327.511719 72.464844 328.128906 72.464844 "/>
<path style=" stroke:none;fill-rule:nonzero;fill:rgb(78.039216%,62.745098%,3.137255%);fill-opacity:1;" d="M 335.808594 77.691406 C 335.960938 78.304688 335.960938 78.769531 335.960938 79.382812 C 335.960938 80.152344 335.65625 80.921875 335.347656 81.535156 C 335.960938 81.226562 340.878906 79.691406 339.035156 74.15625 C 339.1875 74.460938 335.65625 77.691406 335.808594 77.691406 "/>
<path style=" stroke:none;fill-rule:nonzero;fill:rgb(78.039216%,62.745098%,3.137255%);fill-opacity:1;" d="M 324.902344 95.066406 C 329.511719 95.21875 334.734375 92.453125 338.421875 87.378906 C 329.050781 89.378906 319.0625 73.539062 319.984375 72.003906 C 316.453125 74.617188 313.226562 79.535156 313.074219 83.074219 C 312.765625 89.53125 318.140625 94.757812 324.902344 95.066406 "/>
<path style=" stroke:none;fill-rule:nonzero;fill:rgb(78.039216%,62.745098%,3.137255%);fill-opacity:1;" d="M 376.671875 136.121094 L 378.820312 137.503906 L 405.859375 56.316406 L 385.582031 51.707031 L 385.425781 56.472656 L 401.710938 60.007812 Z M 376.671875 136.121094 "/>
<path style=" stroke:none;fill-rule:nonzero;fill:rgb(78.039216%,62.745098%,3.137255%);fill-opacity:1;" d="M 344.566406 42.941406 L 344.71875 47.554688 L 366.226562 51.859375 L 374.519531 91.222656 L 377.898438 87.839844 L 369.910156 48.015625 Z M 344.566406 42.941406 "/>
<path style=" stroke:none;fill-rule:nonzero;fill:rgb(78.039216%,62.745098%,3.137255%);fill-opacity:1;" d="M 361.15625 87.839844 L 355.164062 121.359375 L 358.542969 122.4375 L 364.535156 84.457031 Z M 361.15625 87.839844 "/>
<path style=" stroke:none;fill-rule:nonzero;fill:rgb(78.039216%,62.745098%,3.137255%);fill-opacity:1;" d="M 82.03125 133.660156 L 72.046875 97.066406 L 68.359375 99.679688 L 77.730469 134.585938 Z M 82.03125 133.660156 "/>
<path style=" stroke:none;fill-rule:nonzero;fill:rgb(78.039216%,62.745098%,3.137255%);fill-opacity:1;" d="M 79.421875 78.769531 C 77.117188 81.226562 71.894531 85.996094 68.972656 87.839844 L 67.132812 82.152344 L 63.289062 69.542969 L 60.832031 61.085938 L 58.375 64.160156 L 60.832031 72.617188 L 64.671875 85.070312 L 66.515625 90.761719 C 70.664062 88.453125 76.5 83.535156 79.421875 78.769531 "/>
<path style=" stroke:none;fill-rule:nonzero;fill:rgb(49.019608%,49.803922%,40.784314%);fill-opacity:1;" d="M 221.976562 57.085938 C 218.75 55.855469 214.296875 56.164062 211.839844 58.933594 C 211.222656 59.546875 210.148438 61.085938 209.84375 61.855469 C 212.144531 60.007812 216.449219 59.546875 219.058594 60.625 Z M 221.976562 57.085938 "/>
<path style=" stroke:none;fill-rule:nonzero;fill:rgb(49.019608%,49.803922%,40.784314%);fill-opacity:1;" d="M 76.65625 68.464844 C 76.347656 66.621094 74.503906 65.082031 73.582031 64.621094 C 72.046875 63.851562 69.128906 63.699219 67.132812 64.160156 C 67.4375 65.390625 67.898438 66.929688 68.050781 67.542969 C 68.820312 67.695312 70.203125 67.851562 70.972656 68.15625 C 71.894531 68.621094 73.429688 69.542969 73.738281 71.539062 C 74.199219 74 74.042969 76.460938 72.96875 78.304688 C 75.886719 75.539062 77.269531 72.464844 76.65625 68.464844 "/>
<path style=" stroke:none;fill-rule:nonzero;fill:rgb(23.529412%,35.294118%,65.098039%);fill-opacity:1;" d="M 81.644531 68.332031 C 80.265625 60.953125 70.585938 56.800781 60.90625 62.027344 L 63.367188 70.484375 L 67.207031 83.09375 L 69.050781 88.785156 C 76.269531 84.324219 83.488281 78.636719 81.644531 68.332031 Z M 72.121094 79.867188 C 71.046875 76.484375 68.742188 69.101562 68.742188 69.101562 C 68.742188 69.101562 68.28125 67.566406 67.667969 65.71875 C 69.664062 65.410156 71.660156 65.566406 73.199219 66.335938 C 74.117188 66.796875 75.65625 67.71875 75.960938 69.71875 C 76.882812 73.714844 75.5 76.789062 72.121094 79.867188 Z M 72.121094 79.867188 "/>
<path style=" stroke:none;fill-rule:nonzero;fill:rgb(20.784314%,40.392157%,69.019608%);fill-opacity:1;" d="M 226.96875 56.648438 C 221.59375 51.726562 213.296875 52.035156 208.382812 57.417969 C 203.464844 62.796875 203.773438 71.101562 209.148438 76.023438 C 209.609375 76.484375 210.070312 76.789062 210.53125 77.097656 L 227.890625 57.417969 C 227.582031 57.261719 227.277344 56.953125 226.96875 56.648438 Z M 210.683594 70.484375 C 208.996094 67.410156 209.300781 63.414062 211.914062 60.644531 C 214.371094 58.03125 218.058594 57.261719 221.285156 58.492188 Z M 210.683594 70.484375 "/>
<path style=" stroke:none;fill-rule:nonzero;fill:rgb(11.764706%,17.647059%,37.254902%);fill-opacity:1;" d="M 250.089844 54.472656 L 240.566406 63.699219 L 249.628906 71.847656 Z M 250.089844 54.472656 "/>
<path style=" stroke:none;fill-rule:nonzero;fill:rgb(20.392157%,40%,68.627451%);fill-opacity:1;" d="M 339.035156 74.308594 C 339.1875 74.921875 339.1875 75.539062 339.1875 76.152344 C 339.035156 79.84375 335.65625 82.613281 331.507812 82.457031 C 327.359375 82.304688 324.132812 79.230469 324.289062 75.539062 C 324.441406 72.15625 327.511719 69.386719 331.199219 69.234375 C 330.433594 69.082031 329.664062 68.925781 328.894531 68.925781 C 321.984375 68.621094 316.453125 73.539062 316.144531 79.535156 C 315.839844 85.996094 321.0625 91.375 327.820312 91.53125 C 334.734375 91.835938 340.261719 86.917969 340.570312 80.460938 C 341.03125 78.304688 340.261719 76.152344 339.035156 74.308594 "/>
<path style=" stroke:none;fill-rule:nonzero;fill:url(#linear7);" d="M 130.730469 81.6875 C 130.730469 85.378906 127.347656 88.300781 123.355469 88.300781 C 119.207031 88.300781 115.980469 85.378906 115.980469 81.6875 C 115.980469 78.304688 118.898438 75.386719 122.742188 75.078125 C 121.972656 74.921875 121.203125 74.921875 120.4375 74.921875 C 113.523438 74.921875 108.148438 79.996094 108.148438 86.148438 C 108.148438 92.605469 113.523438 97.679688 120.28125 97.679688 C 127.195312 97.679688 132.570312 92.605469 132.570312 86.148438 C 132.570312 83.84375 131.804688 81.84375 130.574219 79.996094 C 130.574219 80.460938 130.730469 81.074219 130.730469 81.6875 "/>
<path style=" stroke:none;fill-rule:nonzero;fill:url(#linear8);" d="M 381.816406 44.5 L 378.742188 57.109375 L 375.976562 43.117188 L 338.1875 34.8125 L 338.496094 55.878906 L 344.179688 57.109375 L 343.71875 60.953125 C 343.71875 60.953125 343.566406 60.953125 343.566406 60.800781 C 336.5 57.109375 327.742188 56.648438 319.601562 59.875 C 316.835938 60.953125 314.222656 62.335938 311.917969 64.027344 L 306.234375 28.046875 L 281.195312 28.046875 L 280.582031 32.199219 L 254.160156 32.199219 L 251.085938 50.652344 L 248.9375 47.882812 C 242.484375 40.039062 233.265625 35.734375 222.976562 35.429688 L 245.402344 23.433594 L 229.734375 0.0625 L 201.46875 32.660156 L 206.382812 38.65625 C 201.929688 40.503906 198.089844 42.960938 194.863281 46.039062 L 170.589844 24.511719 L 162.140625 40.65625 L 162.449219 24.972656 L 124.503906 37.121094 L 125.582031 57.417969 L 132.03125 55.726562 L 132.953125 66.027344 C 125.582031 62.644531 116.671875 62.796875 108.53125 66.335938 C 106.070312 67.410156 103.765625 68.640625 101.769531 70.179688 C 103.152344 63.875 102.84375 57.722656 100.386719 52.1875 C 97.621094 45.730469 92.554688 40.195312 86.5625 36.8125 C 82.261719 33.890625 77.191406 32.199219 71.816406 31.582031 C 58.757812 29.277344 42.933594 31.582031 27.417969 38.195312 C 21.734375 40.65625 16.359375 43.421875 11.597656 46.5 L 5.605469 50.34375 L 9.292969 56.492188 L 20.660156 75.867188 L 24.191406 81.710938 L 30.339844 78.636719 L 31.257812 78.175781 L 59.523438 141.21875 L 62.289062 147.214844 L 68.589844 145.214844 L 83.796875 140.296875 L 90.554688 138.140625 L 88.867188 131.375 L 80.726562 100.316406 C 83.027344 98.625 85.179688 96.78125 87.175781 94.78125 C 86.714844 98.472656 87.023438 102.316406 87.945312 105.851562 C 90.09375 113.386719 95.011719 119.382812 101.925781 122.613281 C 109.296875 126.148438 118.359375 126.148438 126.65625 122.613281 C 130.804688 120.765625 134.644531 118.308594 137.71875 115.078125 L 138.792969 127.53125 L 165.523438 123.535156 L 165.523438 99.546875 L 221.285156 127.226562 L 221.285156 100.625 C 223.589844 100.46875 225.738281 100.007812 228.042969 99.546875 C 234.1875 98.011719 239.410156 96.011719 244.175781 93.242188 L 241.871094 107.542969 L 271.980469 112.308594 L 273.667969 101.394531 L 281.503906 116 L 286.265625 106.773438 L 287.953125 121.996094 L 322.058594 127.992188 L 320.214844 116.460938 C 324.824219 116.921875 329.738281 116.308594 334.5 114.617188 C 335.578125 114.15625 336.804688 113.695312 337.726562 113.078125 L 336.34375 125.378906 L 359.082031 128.609375 L 359.234375 137.988281 L 382.890625 145.371094 L 413.769531 52.34375 Z M 248.476562 58.339844 L 250.011719 56.648438 L 248.167969 68.332031 L 243.253906 63.875 Z M 228.503906 10.363281 L 236.800781 21.589844 L 213.144531 33.273438 L 211.453125 30.816406 C 211.453125 30.96875 228.503906 10.363281 228.503906 10.363281 Z M 71.96875 97.085938 L 81.339844 133.375 L 66.132812 138.296875 L 34.792969 68.179688 C 33.101562 69.101562 29.878906 70.640625 27.113281 72.023438 L 15.746094 52.804688 C 20.199219 49.882812 25.269531 47.421875 30.492188 45.113281 C 45.238281 38.8125 59.371094 36.964844 70.585938 38.964844 C 74.578125 39.425781 78.726562 40.65625 82.414062 43.117188 C 87.484375 46.039062 91.324219 50.035156 93.628906 55.261719 C 99.160156 67.871094 90.09375 86.015625 71.96875 97.085938 Z M 142.171875 90.628906 C 142.019531 96.011719 140.019531 101.394531 136.640625 106.003906 C 133.414062 110.464844 129.113281 114 123.890625 116.308594 C 110.679688 121.996094 97.46875 116.308594 93.9375 103.699219 C 90.554688 91.550781 98.542969 77.097656 111.292969 71.5625 C 119.4375 68.027344 127.730469 68.949219 133.570312 72.945312 C 137.257812 75.40625 140.019531 79.097656 141.25 83.710938 C 141.402344 84.171875 141.558594 84.785156 141.558594 85.246094 C 142.171875 87.09375 142.171875 88.9375 142.171875 90.628906 Z M 214.21875 116.308594 L 158.761719 88.628906 L 158.917969 117.691406 L 144.628906 119.691406 L 143.554688 107.695312 C 148.007812 100.164062 149.546875 91.089844 147.242188 82.941406 C 146.011719 78.480469 143.707031 74.484375 140.480469 71.410156 L 138.484375 46.960938 L 132.03125 48.652344 L 131.726562 42.5 L 154.769531 35.582031 L 156.152344 59.261719 L 173.050781 35.429688 L 189.792969 51.265625 L 166.597656 75.714844 L 188.410156 84.324219 C 190.867188 88.9375 194.554688 92.78125 199.164062 95.703125 C 203.617188 98.472656 208.84375 100.164062 214.21875 100.625 Z M 185.492188 76.023438 L 177.8125 73.101562 L 185.03125 66.179688 C 184.570312 69.410156 184.722656 72.640625 185.492188 76.023438 Z M 245.710938 83.402344 C 240.332031 87.863281 234.34375 90.628906 226.355469 92.628906 C 224.664062 93.089844 222.820312 93.398438 221.285156 93.398438 C 208.535156 94.628906 197.933594 88.785156 193.941406 79.40625 C 193.480469 78.328125 193.019531 77.097656 192.710938 75.867188 C 190.867188 67.871094 192.40625 60.800781 196.398438 55.109375 C 197.472656 53.417969 198.855469 52.035156 200.394531 50.652344 C 204.078125 47.269531 208.84375 44.960938 214.21875 43.578125 C 226.355469 40.65625 236.953125 44.347656 243.558594 52.34375 L 220.515625 76.945312 C 222.054688 77.25 224.511719 76.789062 226.355469 76.328125 C 231.882812 74.945312 234.957031 72.023438 237.570312 68.949219 L 246.785156 77.25 L 249.550781 79.710938 C 248.320312 81.097656 247.09375 82.324219 245.710938 83.402344 Z M 294.714844 116.152344 L 289.644531 82.941406 L 282.578125 101.238281 L 271.980469 78.328125 L 271.824219 78.328125 L 267.675781 104.929688 L 250.011719 101.855469 L 252.46875 87.09375 C 253.082031 86.476562 253.851562 85.863281 254.464844 85.09375 L 260.148438 79.25 L 254.621094 74.175781 L 260.609375 38.8125 L 278.429688 38.8125 L 282.886719 63.257812 L 287.953125 34.964844 L 300.707031 34.964844 L 306.082031 69.410156 C 299.324219 77.097656 296.097656 87.398438 298.246094 96.933594 C 299.9375 104.3125 304.546875 110.15625 310.996094 113.695312 C 311.613281 114 312.378906 114.308594 312.996094 114.617188 L 313.609375 119.074219 Z M 338.800781 105.238281 C 336.804688 106.621094 334.65625 107.851562 332.351562 108.621094 C 327.742188 110.3125 323.289062 110.773438 319.140625 109.851562 C 316.375 109.234375 313.761719 108.160156 311.457031 106.621094 C 307.925781 104.007812 305.3125 100.316406 304.085938 95.550781 C 302.703125 89.859375 303.929688 83.710938 307.003906 78.328125 C 308.539062 75.714844 310.535156 73.253906 312.839844 71.101562 C 315.453125 68.792969 318.523438 66.796875 321.75 65.566406 C 329.585938 62.644531 337.265625 63.71875 342.644531 67.566406 C 344.640625 68.949219 346.328125 70.792969 347.558594 72.945312 C 348.480469 74.636719 349.25 76.484375 349.710938 78.480469 C 351.398438 85.402344 349.402344 92.78125 345.101562 98.625 C 343.71875 101.238281 341.414062 103.390625 338.800781 105.238281 Z M 378.742188 136.605469 L 365.6875 132.761719 L 364.609375 84.480469 L 358.003906 121.691406 L 343.71875 119.382812 L 344.792969 108.621094 C 354.164062 100.777344 359.082031 88.324219 356.316406 76.945312 C 355.085938 72.023438 352.628906 67.566406 348.941406 64.335938 L 350.171875 51.726562 L 344.792969 50.34375 L 344.945312 43.578125 L 369.527344 48.496094 L 377.820312 87.707031 L 386.269531 52.496094 L 405.011719 56.648438 Z M 378.742188 136.605469 "/>
<path style=" stroke:none;fill-rule:nonzero;fill:rgb(0%,0%,0%);fill-opacity:1;" d="M 396.332031 131.203125 L 396.949219 131.203125 C 397.714844 131.203125 398.332031 130.894531 398.332031 130.125 C 398.332031 129.664062 397.871094 129.046875 396.949219 129.046875 L 396.332031 129.046875 Z M 396.332031 134.429688 L 395.414062 134.429688 L 395.414062 128.585938 C 395.875 128.433594 396.332031 128.433594 397.101562 128.433594 C 398.023438 128.433594 398.636719 128.585938 398.945312 128.894531 C 399.253906 129.203125 399.558594 129.511719 399.558594 130.125 C 399.558594 130.894531 399.097656 131.355469 398.484375 131.507812 C 398.945312 131.664062 399.40625 132.125 399.40625 132.894531 C 399.558594 133.816406 399.714844 134.121094 399.714844 134.277344 L 398.792969 134.277344 C 398.636719 134.121094 398.484375 133.507812 398.332031 132.738281 C 398.175781 131.96875 397.871094 131.664062 397.101562 131.664062 L 396.332031 131.664062 Z M 397.410156 126.894531 C 395.105469 126.894531 393.261719 128.894531 393.261719 131.355469 C 393.261719 133.816406 395.105469 135.8125 397.5625 135.8125 C 399.867188 135.8125 401.710938 133.816406 401.710938 131.355469 C 401.558594 128.894531 399.714844 126.894531 397.410156 126.894531 Z M 397.410156 126.128906 C 400.328125 126.128906 402.480469 128.433594 402.480469 131.355469 C 402.480469 134.277344 400.175781 136.582031 397.253906 136.582031 C 394.335938 136.582031 392.03125 134.277344 392.03125 131.355469 C 392.1875 128.433594 394.492188 126.128906 397.410156 126.128906 Z M 397.410156 126.128906 "/>
</g>
</svg>
